<svg width="85" height="85" viewBox="0 0 85 85" fill="none" xmlns="http://www.w3.org/2000/svg">
<g clip-path="url(#clip0_148_22)">
<path d="M65.0781 0H19.9219C8.91933 0 0 8.91933 0 19.9219V65.0781C0 76.0807 8.91933 85 19.9219 85H65.0781C76.0807 85 85 76.0807 85 65.0781V19.9219C85 8.91933 76.0807 0 65.0781 0Z" fill="#45475A"/>
<path d="M27.8906 18.5938H22.5781C20.3776 18.5938 18.5938 20.3776 18.5938 22.5781V62.4219C18.5938 64.6224 20.3776 66.4062 22.5781 66.4062H27.8906C30.0911 66.4062 31.875 64.6224 31.875 62.4219V22.5781C31.875 20.3776 30.0911 18.5938 27.8906 18.5938Z" fill="white"/>
<path d="M45.1562 29.8828H39.8438C37.6432 29.8828 35.8594 31.6667 35.8594 33.8672V50.8008C35.8594 53.0013 37.6432 54.7852 39.8438 54.7852H45.1562C47.3568 54.7852 49.1406 53.0013 49.1406 50.8008V33.8672C49.1406 31.6667 47.3568 29.8828 45.1562 29.8828Z" fill="#C7D2FE"/>
<path d="M62.4219 18.5938H57.1094C54.9089 18.5938 53.125 20.3776 53.125 22.5781V62.4219C53.125 64.6224 54.9089 66.4062 57.1094 66.4062H62.4219C64.6224 66.4062 66.4062 64.6224 66.4062 62.4219V22.5781C66.4062 20.3776 64.6224 18.5938 62.4219 18.5938Z" fill="white"/>
</g>
<defs>
<clipPath id="clip0_148_22">
<rect width="85" height="85" fill="white"/>
</clipPath>
</defs>
</svg>
