<svg xmlns="http://www.w3.org/2000/svg" viewBox="0 0 24 24" fill="#000000" id="Layout-Kanban--Streamline-Tabler-Filled" height="24" width="24">
  <desc>
    Layout Kanban Streamline Icon: https://streamlinehq.com
  </desc>
  <path d="M10 3a1 1 0 0 1 0 2H4a1 1 0 1 1 0 -2z" stroke-width="1"></path>
  <path d="M20 3a1 1 0 0 1 0 2h-6a1 1 0 0 1 0 -2z" stroke-width="1"></path>
  <path d="M8 7a3 3 0 0 1 3 3v8a3 3 0 0 1 -3 3H6a3 3 0 0 1 -3 -3v-8a3 3 0 0 1 3 -3z" stroke-width="1"></path>
  <path d="M18 7a3 3 0 0 1 3 3v2a3 3 0 0 1 -3 3h-2a3 3 0 0 1 -3 -3v-2a3 3 0 0 1 3 -3z" stroke-width="1"></path>
</svg>