<svg width="24" height="24" fill="currentColor" viewBox="0 0 24 24" transform="" id="injected-svg"><!--Boxicons v3.0.4 https://boxicons.com | License  https://docs.boxicons.com/free--><path d="m3.71,21.71l5.29-5.29,2.29,2.29c.2.2.45.29.71.29s.51-.1.71-.29l2-2c.39-.39.39-1.02,0-1.41l-.79-.79,3.59-3.59.79.79c.39.39,1.02.39,1.41,0l2-2c.39-.39.39-1.02,0-1.41l-6-6c-.39-.39-1.02-.39-1.41,0l-2,2c-.39.39-.39,1.02,0,1.41l.79.79-3.59,3.59-.79-.79c-.39-.39-1.02-.39-1.41,0l-2,2c-.39.39-.39,1.02,0,1.41l2.29,2.29-5.29,5.29,1.41,1.41Z"></path></svg>