<svg width="24" height="18" viewBox="0 0 24 18" fill="none" xmlns="http://www.w3.org/2000/svg">
<path d="M2 12.5H5C5.82843 12.5 6.5 13.1716 6.5 14V16C6.5 16.8284 5.82843 17.5 5 17.5H2C1.1715 17.5 0.5 16.8284 0.5 16V13.999C0.500137 13.1709 1.17142 12.5 2 12.5Z" stroke="black"/>
<path d="M10.25 6.5H13.25C14.0784 6.5 14.75 7.17157 14.75 8V16C14.75 16.8284 14.0784 17.5 13.25 17.5H10.25C9.42119 17.5 8.75 16.829 8.75 16.001V7.99707C8.75024 7.16966 9.42091 6.5 10.25 6.5Z" stroke="black"/>
<path d="M18.5 0.5H21.5C22.3284 0.5 23 1.17157 23 2V16C23 16.8284 22.3284 17.5 21.5 17.5H18.5C17.6707 17.5 17.0001 16.8304 17 16.0029V1.99609C17 1.16901 17.6702 0.5 18.5 0.5Z" stroke="black"/>
</svg>
